<mxfile host="Electron" agent="Mozilla/5.0 (Windows NT 10.0; Win64; x64) AppleWebKit/537.36 (KHTML, like Gecko) draw.io/24.7.17 Chrome/128.0.6613.36 Electron/32.0.1 Safari/537.36" version="24.7.17">
  <diagram name="Page-1" id="5f0bae14-7c28-e335-631c-24af17079c00">
    <mxGraphModel dx="2138" dy="571" grid="1" gridSize="10" guides="1" tooltips="1" connect="1" arrows="1" fold="1" page="1" pageScale="1" pageWidth="1100" pageHeight="850" background="none" math="0" shadow="0">
      <root>
        <mxCell id="0" />
        <mxCell id="1" parent="0" />
        <mxCell id="5ntWk99BVRicgcjImMjZ-29" value="" style="html=1;dropTarget=0;whiteSpace=wrap;fillColor=#1ba1e2;fontColor=#ffffff;strokeColor=#00060A;container=0;movable=0;resizable=0;rotatable=0;deletable=0;editable=0;locked=1;connectable=0;" parent="1" vertex="1">
          <mxGeometry x="25.5" y="125" width="530" height="315" as="geometry" />
        </mxCell>
        <mxCell id="5ntWk99BVRicgcjImMjZ-59" value="&lt;span style=&quot;color: rgb(255, 255, 255);&quot;&gt;«component»&lt;/span&gt;&lt;br style=&quot;color: rgb(255, 255, 255);&quot;&gt;&lt;span style=&quot;color: rgb(255, 255, 255);&quot;&gt;«C4 system»&lt;/span&gt;&lt;br style=&quot;color: rgb(255, 255, 255);&quot;&gt;&lt;b style=&quot;color: rgb(255, 255, 255);&quot;&gt;Healthcare System&lt;/b&gt;" style="text;html=1;align=center;verticalAlign=middle;whiteSpace=wrap;rounded=0;" parent="1" vertex="1">
          <mxGeometry x="23.5" y="131" width="150" height="45" as="geometry" />
        </mxCell>
        <mxCell id="aWajuIK19yeN8hbnkcbw-7" value="" style="group" parent="1" vertex="1" connectable="0">
          <mxGeometry x="302.5" y="160" width="157.5" height="80" as="geometry" />
        </mxCell>
        <mxCell id="5ntWk99BVRicgcjImMjZ-42" value="" style="group" parent="aWajuIK19yeN8hbnkcbw-7" vertex="1" connectable="0">
          <mxGeometry width="157.5" height="80" as="geometry" />
        </mxCell>
        <mxCell id="5ntWk99BVRicgcjImMjZ-43" value="«component»&lt;br&gt;&lt;b&gt;MDBackoffice&lt;/b&gt;" style="html=1;dropTarget=0;whiteSpace=wrap;fillColor=#1ba1e2;fontColor=#ffffff;strokeColor=#000000;" parent="5ntWk99BVRicgcjImMjZ-42" vertex="1">
          <mxGeometry y="10" width="150" height="70" as="geometry" />
        </mxCell>
        <mxCell id="5ntWk99BVRicgcjImMjZ-44" value="" style="shape=module;jettyWidth=8;jettyHeight=4;fillColor=#1ba1e2;fontColor=#ffffff;strokeColor=#006EAF;" parent="5ntWk99BVRicgcjImMjZ-43" vertex="1">
          <mxGeometry x="1" width="20" height="20" relative="1" as="geometry">
            <mxPoint x="-27" y="7" as="offset" />
          </mxGeometry>
        </mxCell>
        <mxCell id="jOTJhImb_GoGXxvrqTHE-16" value="" style="fontStyle=0;labelPosition=right;verticalLabelPosition=middle;align=left;verticalAlign=middle;spacingLeft=2;fillColor=#1BA1E2;strokeColor=#030303;" parent="5ntWk99BVRicgcjImMjZ-42" vertex="1">
          <mxGeometry x="122.5" y="4" width="12.5" height="10" as="geometry" />
        </mxCell>
        <mxCell id="huE5dA61W31hyEfHLyBf-43" value="" style="fontStyle=0;labelPosition=right;verticalLabelPosition=middle;align=left;verticalAlign=middle;spacingLeft=2;fillColor=#1BA1E2;strokeColor=#030303;" parent="5ntWk99BVRicgcjImMjZ-42" vertex="1">
          <mxGeometry x="21.5" y="4" width="12.5" height="10" as="geometry" />
        </mxCell>
        <mxCell id="aWajuIK19yeN8hbnkcbw-20" value="" style="ellipse;whiteSpace=wrap;html=1;align=center;aspect=fixed;fillColor=none;strokeColor=none;resizable=0;perimeter=centerPerimeter;rotatable=0;allowArrows=0;points=[];outlineConnect=1;" parent="1" vertex="1">
          <mxGeometry x="400" y="350" width="10" height="10" as="geometry" />
        </mxCell>
        <mxCell id="aWajuIK19yeN8hbnkcbw-24" value="" style="ellipse;whiteSpace=wrap;html=1;align=center;aspect=fixed;fillColor=none;strokeColor=none;resizable=0;perimeter=centerPerimeter;rotatable=0;allowArrows=0;points=[];outlineConnect=1;" parent="1" vertex="1">
          <mxGeometry x="430" y="370" width="10" height="10" as="geometry" />
        </mxCell>
        <mxCell id="MUdgfgchrhalaana_HS_-1" style="edgeStyle=orthogonalEdgeStyle;rounded=0;orthogonalLoop=1;jettySize=auto;html=1;entryX=0.5;entryY=0;entryDx=0;entryDy=0;endArrow=none;endFill=0;strokeColor=#000000;exitX=0.5;exitY=1;exitDx=0;exitDy=0;" parent="1" source="MUdgfgchrhalaana_HS_-3" target="MUdgfgchrhalaana_HS_-7" edge="1">
          <mxGeometry relative="1" as="geometry">
            <Array as="points">
              <mxPoint x="170" y="80" />
              <mxPoint x="170" y="80" />
            </Array>
          </mxGeometry>
        </mxCell>
        <mxCell id="MUdgfgchrhalaana_HS_-2" value="&amp;nbsp;UI" style="edgeLabel;html=1;align=center;verticalAlign=middle;resizable=0;points=[];labelBackgroundColor=none;fontStyle=1" parent="MUdgfgchrhalaana_HS_-1" vertex="1" connectable="0">
          <mxGeometry x="-0.3286" y="-1" relative="1" as="geometry">
            <mxPoint y="5" as="offset" />
          </mxGeometry>
        </mxCell>
        <mxCell id="MUdgfgchrhalaana_HS_-3" value="" style="ellipse;whiteSpace=wrap;html=1;fillColor=#1ba1e2;fontColor=#ffffff;strokeColor=#006EAF;" parent="1" vertex="1">
          <mxGeometry x="160.5" y="50" width="20" height="20" as="geometry" />
        </mxCell>
        <mxCell id="MUdgfgchrhalaana_HS_-22" style="edgeStyle=orthogonalEdgeStyle;rounded=0;orthogonalLoop=1;jettySize=auto;html=1;exitX=0.5;exitY=1;exitDx=0;exitDy=0;entryX=0.5;entryY=0;entryDx=0;entryDy=0;strokeColor=#000000;endArrow=none;endFill=0;" parent="1" source="MUdgfgchrhalaana_HS_-7" target="MUdgfgchrhalaana_HS_-21" edge="1">
          <mxGeometry relative="1" as="geometry">
            <Array as="points">
              <mxPoint x="171" y="140" />
              <mxPoint x="170" y="140" />
              <mxPoint x="170" y="216" />
            </Array>
          </mxGeometry>
        </mxCell>
        <mxCell id="MUdgfgchrhalaana_HS_-7" value="" style="rounded=0;whiteSpace=wrap;html=1;fillColor=#1ba1e2;fontColor=#ffffff;strokeColor=#000000;" parent="1" vertex="1">
          <mxGeometry x="163" y="120" width="15" height="10" as="geometry" />
        </mxCell>
        <mxCell id="MUdgfgchrhalaana_HS_-15" value="" style="group" parent="1" vertex="1" connectable="0">
          <mxGeometry x="45" y="220" width="150" height="80" as="geometry" />
        </mxCell>
        <mxCell id="MUdgfgchrhalaana_HS_-12" value="«component»&lt;br&gt;&lt;b&gt;Visualization&lt;/b&gt;" style="html=1;dropTarget=0;whiteSpace=wrap;fillColor=#1ba1e2;fontColor=#ffffff;strokeColor=#000000;" parent="MUdgfgchrhalaana_HS_-15" vertex="1">
          <mxGeometry width="150" height="70" as="geometry" />
        </mxCell>
        <mxCell id="MUdgfgchrhalaana_HS_-13" value="" style="shape=module;jettyWidth=8;jettyHeight=4;fillColor=#1ba1e2;fontColor=#ffffff;strokeColor=#006EAF;" parent="MUdgfgchrhalaana_HS_-12" vertex="1">
          <mxGeometry x="1" width="20" height="20" relative="1" as="geometry">
            <mxPoint x="-27" y="7" as="offset" />
          </mxGeometry>
        </mxCell>
        <mxCell id="MUdgfgchrhalaana_HS_-14" value="" style="rounded=0;whiteSpace=wrap;html=1;fillColor=#1ba1e2;fontColor=#ffffff;strokeColor=#000000;" parent="MUdgfgchrhalaana_HS_-15" vertex="1">
          <mxGeometry x="27.5" y="64" width="12.5" height="10" as="geometry" />
        </mxCell>
        <mxCell id="MUdgfgchrhalaana_HS_-25" value="" style="ellipse;whiteSpace=wrap;html=1;align=center;aspect=fixed;fillColor=none;strokeColor=none;resizable=0;perimeter=centerPerimeter;rotatable=0;allowArrows=0;points=[];outlineConnect=1;" parent="1" vertex="1">
          <mxGeometry x="375" y="80" width="10" height="10" as="geometry" />
        </mxCell>
        <mxCell id="MUdgfgchrhalaana_HS_-28" style="edgeStyle=orthogonalEdgeStyle;rounded=0;orthogonalLoop=1;jettySize=auto;html=1;exitX=0.5;exitY=1;exitDx=0;exitDy=0;endArrow=none;endFill=0;strokeColor=#000000;entryX=0.5;entryY=0;entryDx=0;entryDy=0;" parent="1" source="jOTJhImb_GoGXxvrqTHE-10" target="jOTJhImb_GoGXxvrqTHE-16" edge="1">
          <mxGeometry relative="1" as="geometry">
            <Array as="points">
              <mxPoint x="431.25" y="160" />
              <mxPoint x="431.25" y="160" />
            </Array>
            <mxPoint x="430.25" y="168" as="targetPoint" />
          </mxGeometry>
        </mxCell>
        <mxCell id="MUdgfgchrhalaana_HS_-26" value="" style="ellipse;whiteSpace=wrap;html=1;fillColor=#1ba1e2;fontColor=#ffffff;strokeColor=#006EAF;" parent="1" vertex="1">
          <mxGeometry x="421.25" y="50" width="20" height="20" as="geometry" />
        </mxCell>
        <mxCell id="MUdgfgchrhalaana_HS_-21" value="" style="rounded=0;whiteSpace=wrap;html=1;fillColor=#1ba1e2;fontColor=#ffffff;strokeColor=#000000;" parent="1" vertex="1">
          <mxGeometry x="163" y="216" width="12.5" height="10" as="geometry" />
        </mxCell>
        <mxCell id="MUdgfgchrhalaana_HS_-27" value="" style="rounded=0;whiteSpace=wrap;html=1;fillColor=#1ba1e2;fontColor=#ffffff;strokeColor=#000000;rotation=90;" parent="1" vertex="1">
          <mxGeometry x="315" y="230.5" width="10" height="15" as="geometry" />
        </mxCell>
        <mxCell id="jOTJhImb_GoGXxvrqTHE-11" value="" style="edgeStyle=orthogonalEdgeStyle;rounded=0;orthogonalLoop=1;jettySize=auto;html=1;exitX=0.5;exitY=1;exitDx=0;exitDy=0;entryX=0.5;entryY=0;entryDx=0;entryDy=0;endArrow=none;endFill=0;strokeColor=#000000;" parent="1" source="MUdgfgchrhalaana_HS_-26" target="jOTJhImb_GoGXxvrqTHE-10" edge="1">
          <mxGeometry relative="1" as="geometry">
            <Array as="points">
              <mxPoint x="431.25" y="110" />
              <mxPoint x="431.25" y="110" />
            </Array>
            <mxPoint x="431.25" y="70" as="sourcePoint" />
            <mxPoint x="431.25" y="163" as="targetPoint" />
          </mxGeometry>
        </mxCell>
        <mxCell id="jOTJhImb_GoGXxvrqTHE-12" value="&lt;b&gt;&lt;font style=&quot;font-size: 10px;&quot;&gt;MDBackoffice API&lt;/font&gt;&lt;/b&gt;" style="edgeLabel;html=1;align=center;verticalAlign=middle;resizable=0;points=[];labelBackgroundColor=none;" parent="jOTJhImb_GoGXxvrqTHE-11" vertex="1" connectable="0">
          <mxGeometry x="-0.8898" relative="1" as="geometry">
            <mxPoint y="19" as="offset" />
          </mxGeometry>
        </mxCell>
        <mxCell id="jOTJhImb_GoGXxvrqTHE-10" value="" style="fontStyle=0;labelPosition=right;verticalLabelPosition=middle;align=left;verticalAlign=middle;spacingLeft=2;fillColor=#1BA1E2;strokeColor=#030303;" parent="1" vertex="1">
          <mxGeometry x="426.25" y="120.32" width="10" height="10" as="geometry" />
        </mxCell>
        <mxCell id="jOTJhImb_GoGXxvrqTHE-20" value="" style="fontStyle=0;labelPosition=right;verticalLabelPosition=middle;align=left;verticalAlign=middle;spacingLeft=2;fillColor=#1BA1E2;strokeColor=#030303;" parent="1" vertex="1">
          <mxGeometry x="325" y="120" width="10" height="10" as="geometry" />
        </mxCell>
        <mxCell id="jOTJhImb_GoGXxvrqTHE-22" value="" style="rounded=0;orthogonalLoop=1;jettySize=auto;html=1;endArrow=halfCircle;endFill=0;endSize=6;strokeWidth=1;sketch=0;fontSize=12;curved=1;exitX=0.441;exitY=-0.048;exitDx=0;exitDy=0;exitPerimeter=0;fillColor=#030303;strokeColor=#030303;" parent="1" edge="1">
          <mxGeometry relative="1" as="geometry">
            <mxPoint x="329.86999999999995" y="119.52000000000001" as="sourcePoint" />
            <mxPoint x="330.13" y="70" as="targetPoint" />
            <Array as="points" />
          </mxGeometry>
        </mxCell>
        <mxCell id="jOTJhImb_GoGXxvrqTHE-24" value="&lt;b&gt;&lt;font style=&quot;font-size: 10px;&quot;&gt;Public Email API&lt;/font&gt;&lt;/b&gt;" style="edgeLabel;html=1;align=center;verticalAlign=middle;resizable=0;points=[];labelBackgroundColor=none;" parent="1" vertex="1" connectable="0">
          <mxGeometry x="160.00274094513907" y="142.00296169518097" as="geometry">
            <mxPoint x="174" y="-50" as="offset" />
          </mxGeometry>
        </mxCell>
        <mxCell id="5ntWk99BVRicgcjImMjZ-30" value="" style="shape=module;jettyWidth=8;jettyHeight=4;fillColor=#1ba1e2;fontColor=#ffffff;strokeColor=#006EAF;" parent="1" vertex="1">
          <mxGeometry x="530" y="132" width="20" height="20" as="geometry">
            <mxPoint x="-27" y="7" as="offset" />
          </mxGeometry>
        </mxCell>
        <mxCell id="huE5dA61W31hyEfHLyBf-23" value="" style="rounded=0;whiteSpace=wrap;html=1;fillColor=#1ba1e2;fontColor=#ffffff;strokeColor=#000000;" parent="1" vertex="1">
          <mxGeometry x="408.75" y="235.5" width="12.5" height="10" as="geometry" />
        </mxCell>
        <mxCell id="huE5dA61W31hyEfHLyBf-33" style="edgeStyle=orthogonalEdgeStyle;rounded=0;orthogonalLoop=1;jettySize=auto;html=1;exitX=0.5;exitY=1;exitDx=0;exitDy=0;entryX=0.424;entryY=-0.001;entryDx=0;entryDy=0;endArrow=none;endFill=0;strokeColor=#000000;entryPerimeter=0;" parent="1" source="huE5dA61W31hyEfHLyBf-37" target="5ntWk99BVRicgcjImMjZ-29" edge="1">
          <mxGeometry relative="1" as="geometry">
            <Array as="points">
              <mxPoint x="250" y="195" />
              <mxPoint x="250" y="160" />
              <mxPoint x="250" y="160" />
            </Array>
            <mxPoint x="250.13" y="160" as="sourcePoint" />
            <mxPoint x="250" y="158" as="targetPoint" />
          </mxGeometry>
        </mxCell>
        <mxCell id="huE5dA61W31hyEfHLyBf-34" value="" style="fontStyle=0;labelPosition=right;verticalLabelPosition=middle;align=left;verticalAlign=middle;spacingLeft=2;fillColor=#1BA1E2;strokeColor=#030303;" parent="1" vertex="1">
          <mxGeometry x="245.75" y="120" width="10" height="10" as="geometry" />
        </mxCell>
        <mxCell id="huE5dA61W31hyEfHLyBf-35" value="" style="rounded=0;orthogonalLoop=1;jettySize=auto;html=1;endArrow=halfCircle;endFill=0;endSize=6;strokeWidth=1;sketch=0;fontSize=12;curved=1;exitX=0.441;exitY=-0.048;exitDx=0;exitDy=0;exitPerimeter=0;fillColor=#030303;strokeColor=#030303;" parent="1" edge="1">
          <mxGeometry relative="1" as="geometry">
            <mxPoint x="250.61999999999995" y="119.52000000000001" as="sourcePoint" />
            <mxPoint x="250.88" y="70" as="targetPoint" />
            <Array as="points">
              <mxPoint x="250.75" y="90" />
            </Array>
          </mxGeometry>
        </mxCell>
        <mxCell id="huE5dA61W31hyEfHLyBf-36" value="&lt;b&gt;&lt;font style=&quot;font-size: 10px;&quot;&gt;Public Auth API&lt;/font&gt;&lt;/b&gt;" style="edgeLabel;html=1;align=center;verticalAlign=middle;resizable=0;points=[];labelBackgroundColor=none;" parent="1" vertex="1" connectable="0">
          <mxGeometry x="-42.99725905486093" y="179.00296169518094" as="geometry">
            <mxPoint x="295" y="-87" as="offset" />
          </mxGeometry>
        </mxCell>
        <mxCell id="huE5dA61W31hyEfHLyBf-37" value="" style="fontStyle=0;labelPosition=right;verticalLabelPosition=middle;align=left;verticalAlign=middle;spacingLeft=2;fillColor=#1BA1E2;strokeColor=#030303;movable=1;resizable=1;rotatable=1;deletable=1;editable=1;locked=0;connectable=1;rotation=90;" parent="1" vertex="1">
          <mxGeometry x="296" y="190" width="12.5" height="10" as="geometry" />
        </mxCell>
        <mxCell id="huE5dA61W31hyEfHLyBf-47" style="edgeStyle=orthogonalEdgeStyle;rounded=0;orthogonalLoop=1;jettySize=auto;html=1;exitX=0.5;exitY=1;exitDx=0;exitDy=0;endArrow=none;endFill=0;strokeColor=#000000;entryX=0.5;entryY=0;entryDx=0;entryDy=0;" parent="1" edge="1">
          <mxGeometry relative="1" as="geometry">
            <Array as="points">
              <mxPoint x="330" y="160" />
              <mxPoint x="330" y="160" />
            </Array>
            <mxPoint x="330" y="164" as="targetPoint" />
            <mxPoint x="330" y="130" as="sourcePoint" />
          </mxGeometry>
        </mxCell>
        <mxCell id="gqJU7pF-2rakXu2DPbni-2" value="" style="rounded=0;orthogonalLoop=1;jettySize=auto;html=1;endArrow=halfCircle;endFill=0;endSize=6;strokeWidth=1;sketch=0;strokeColor=#030303;" edge="1" parent="1">
          <mxGeometry relative="1" as="geometry">
            <mxPoint x="78" y="294" as="sourcePoint" />
            <mxPoint x="318" y="315" as="targetPoint" />
            <Array as="points">
              <mxPoint x="78" y="315" />
            </Array>
          </mxGeometry>
        </mxCell>
        <mxCell id="gqJU7pF-2rakXu2DPbni-3" value="" style="rounded=0;orthogonalLoop=1;jettySize=auto;html=1;endArrow=oval;endFill=0;sketch=0;sourcePerimeterSpacing=0;targetPerimeterSpacing=0;endSize=10;exitX=1;exitY=0.5;exitDx=0;exitDy=0;strokeColor=#030303;" edge="1" target="gqJU7pF-2rakXu2DPbni-4" parent="1" source="MUdgfgchrhalaana_HS_-27">
          <mxGeometry relative="1" as="geometry">
            <mxPoint x="280" y="295" as="sourcePoint" />
          </mxGeometry>
        </mxCell>
        <mxCell id="gqJU7pF-2rakXu2DPbni-4" value="" style="ellipse;whiteSpace=wrap;html=1;align=center;aspect=fixed;fillColor=none;strokeColor=none;resizable=0;perimeter=centerPerimeter;rotatable=0;allowArrows=0;points=[];outlineConnect=1;" vertex="1" parent="1">
          <mxGeometry x="315" y="310" width="10" height="10" as="geometry" />
        </mxCell>
        <mxCell id="5ntWk99BVRicgcjImMjZ-31" value="«component»&lt;br&gt;&lt;b&gt;Planning&lt;/b&gt;" style="html=1;dropTarget=0;whiteSpace=wrap;fillColor=#1ba1e2;fontColor=#ffffff;strokeColor=#000000;" parent="1" vertex="1">
          <mxGeometry x="340" y="360" width="150" height="70" as="geometry" />
        </mxCell>
        <mxCell id="5ntWk99BVRicgcjImMjZ-32" value="" style="shape=module;jettyWidth=8;jettyHeight=4;fillColor=#1ba1e2;fontColor=#ffffff;strokeColor=#006EAF;" parent="5ntWk99BVRicgcjImMjZ-31" vertex="1">
          <mxGeometry x="1" width="20" height="20" relative="1" as="geometry">
            <mxPoint x="-27" y="7" as="offset" />
          </mxGeometry>
        </mxCell>
        <mxCell id="huE5dA61W31hyEfHLyBf-7" value="" style="rounded=0;whiteSpace=wrap;html=1;fillColor=#1ba1e2;fontColor=#ffffff;strokeColor=#000000;rotation=-90;" parent="1" vertex="1">
          <mxGeometry x="410" y="350" width="10" height="15" as="geometry" />
        </mxCell>
        <mxCell id="gqJU7pF-2rakXu2DPbni-7" value="" style="rounded=0;orthogonalLoop=1;jettySize=auto;html=1;endArrow=halfCircle;endFill=0;endSize=6;strokeWidth=1;sketch=0;exitX=0.5;exitY=1;exitDx=0;exitDy=0;strokeColor=#030303;" edge="1" target="gqJU7pF-2rakXu2DPbni-9" parent="1" source="huE5dA61W31hyEfHLyBf-23">
          <mxGeometry relative="1" as="geometry">
            <mxPoint x="270" y="275" as="sourcePoint" />
          </mxGeometry>
        </mxCell>
        <mxCell id="gqJU7pF-2rakXu2DPbni-8" value="" style="rounded=0;orthogonalLoop=1;jettySize=auto;html=1;endArrow=oval;endFill=0;sketch=0;sourcePerimeterSpacing=0;targetPerimeterSpacing=0;endSize=10;exitX=1;exitY=0.5;exitDx=0;exitDy=0;strokeColor=#030303;" edge="1" target="gqJU7pF-2rakXu2DPbni-9" parent="1" source="huE5dA61W31hyEfHLyBf-7">
          <mxGeometry relative="1" as="geometry">
            <mxPoint x="230" y="275" as="sourcePoint" />
          </mxGeometry>
        </mxCell>
        <mxCell id="gqJU7pF-2rakXu2DPbni-9" value="" style="ellipse;whiteSpace=wrap;html=1;align=center;aspect=fixed;fillColor=none;strokeColor=none;resizable=0;perimeter=centerPerimeter;rotatable=0;allowArrows=0;points=[];outlineConnect=1;" vertex="1" parent="1">
          <mxGeometry x="410" y="290" width="10" height="10" as="geometry" />
        </mxCell>
        <mxCell id="gqJU7pF-2rakXu2DPbni-10" value="&lt;font style=&quot;font-size: 10px;&quot;&gt;MDBackoffice API&lt;/font&gt;" style="text;align=center;fontStyle=1;verticalAlign=middle;spacingLeft=3;spacingRight=3;strokeColor=none;rotatable=0;points=[[0,0.5],[1,0.5]];portConstraint=eastwest;html=1;" vertex="1" parent="1">
          <mxGeometry x="280" y="264" width="80" height="26" as="geometry" />
        </mxCell>
        <mxCell id="gqJU7pF-2rakXu2DPbni-11" value="&lt;font style=&quot;font-size: 10px;&quot;&gt;Planning API&lt;/font&gt;" style="text;align=center;fontStyle=1;verticalAlign=middle;spacingLeft=3;spacingRight=3;strokeColor=none;rotatable=0;points=[[0,0.5],[1,0.5]];portConstraint=eastwest;html=1;" vertex="1" parent="1">
          <mxGeometry x="376" y="310" width="80" height="26" as="geometry" />
        </mxCell>
      </root>
    </mxGraphModel>
  </diagram>
</mxfile>
